# xmcd
#
# Track frame offsets: 
#        150
#        17149
#        40993
#        61334
#        87795
#        107699
#        131231
#        166701
#        191712
#        231640
#        235517
#        243010
#        246010
#
# Disc length: 3844 seconds
#
# Revision: 0
# Processed by: cddbd v1.5.2PL0 Copyright (c) Steve Scherf et al.
# Submitted via: ExactAudioCopy v0.99pb5
#
DISCID=a30f020d
DTITLE=John Mooney - 2009-04-25 New Orleans Jazz Fest
DYEAR=2009
DGENRE=New Orleans
TTITLE0=I Wish I Was In Heaven Sitting Down
TTITLE1=Louise McGhee
TTITLE2=Someday Baby
TTITLE3=My Baby Don't Love Me No More
TTITLE4=Baby Please Don't Go
TTITLE5=Do You Love Me Baby?
TTITLE6=Country Boy
TTITLE7=Doggone Thing
TTITLE8=Sacred Ground
TTITLE9=band intro
TTITLE10=Grinnin' In Your Face
TTITLE11=banter
TTITLE12=Shortenin' Bread
EXTD=
EXTT0=
EXTT1=
EXTT2=
EXTT3=
EXTT4=
EXTT5=
EXTT6=
EXTT7=
EXTT8=
EXTT9=
EXTT10=
EXTT11=
EXTT12=
PLAYORDER=
